<?xml version="1.0" standalone="no"?>
<!DOCTYPE svg PUBLIC "-//W3C//DTD SVG 20010904//EN"
 "http://www.w3.org/TR/2001/REC-SVG-20010904/DTD/svg10.dtd">
<svg version="1.0" xmlns="http://www.w3.org/2000/svg"
 width="554.000000pt" height="554.000000pt" viewBox="0 0 554.000000 554.000000"
 preserveAspectRatio="xMidYMid meet">
<metadata>
Created by potrace 1.14, written by Peter Selinger 2001-2017
</metadata>
<g transform="translate(0.000000,554.000000) scale(0.100000,-0.100000)"
fill="#000000" stroke="none">
<path d="M2292 5513 c-39 -34 -2292 -3481 -2292 -3507 0 -15 11 -33 26 -45 27
-21 28 -21 1171 -21 l1144 0 24 -25 c14 -13 25 -32 25 -43 0 -23 -18 -52 -638
-996 -282 -428 -512 -786 -512 -796 0 -9 9 -29 21 -44 l20 -26 974 0 c912 0
974 1 993 18 39 34 2292 3480 2292 3506 0 15 -10 33 -26 45 -27 21 -28 21
-1174 21 l-1147 0 -21 23 c-12 13 -22 33 -22 45 0 13 253 409 575 898 316 482
575 884 575 894 0 9 -9 29 -21 44 l-20 26 -974 0 c-912 0 -974 -1 -993 -17z
m1468 -283 c11 -11 20 -32 20 -47 0 -18 -157 -266 -500 -788 -275 -419 -509
-770 -519 -779 -15 -14 -54 -16 -318 -16 l-300 0 -27 40 c-102 154 -340 171
-467 33 -87 -95 -110 -223 -58 -334 52 -110 137 -169 255 -177 107 -7 163 15
241 95 l63 63 1418 0 c1409 0 1419 0 1437 -20 10 -11 18 -33 18 -48 0 -19
-283 -457 -948 -1472 -521 -795 -957 -1455 -968 -1467 l-20 -23 -644 0 c-630
0 -643 0 -663 20 -11 11 -20 31 -20 45 0 27 973 1522 1017 1562 24 23 27 23
323 23 l298 0 64 -63 c78 -79 136 -102 237 -95 81 6 152 40 204 97 47 52 63
84 75 151 25 132 -41 264 -162 328 -44 23 -63 27 -136 27 -73 0 -92 -4 -136
-27 -47 -25 -134 -109 -134 -129 0 -5 -639 -9 -1428 -9 -1405 0 -1429 0 -1447
20 -11 13 -16 30 -13 52 3 23 294 475 952 1478 521 795 957 1453 968 1463 19
16 65 17 659 17 626 0 639 0 659 -20z"/>
</g>
</svg>
