<?xml version="1.0" standalone="no"?>
<!DOCTYPE svg PUBLIC "-//W3C//DTD SVG 20010904//EN"
 "http://www.w3.org/TR/2001/REC-SVG-20010904/DTD/svg10.dtd">
<svg version="1.0" xmlns="http://www.w3.org/2000/svg"
 width="700.000000pt" height="700.000000pt" viewBox="0 0 700.000000 700.000000"
 preserveAspectRatio="xMidYMid meet">
<metadata>
Created by potrace 1.11, written by Peter Selinger 2001-2013
</metadata>
<g transform="translate(0.000000,700.000000) scale(0.100000,-0.100000)"
fill="#000000" stroke="none">
<path d="M2109 6987 c-20 -8 -52 -23 -70 -35 -19 -12 -483 -470 -1031 -1019
-1082 -1083 -1026 -1022 -999 -1105 13 -40 2006 -2036 2061 -2063 51 -26 147
-31 208 -11 68 23 134 83 163 148 21 49 23 70 27 256 l4 202 1029 0 1029 0 0
-327 0 -328 -59 -27 c-290 -135 -353 -538 -117 -756 213 -196 551 -154 707 89
93 145 92 353 -1 499 -43 67 -120 135 -191 168 l-59 27 0 645 0 645 930 -930
930 -930 -927 -928 -928 -927 -5 264 c-5 248 -6 266 -26 293 -11 15 -36 36
-55 45 -32 17 -112 18 -1244 18 -1132 0 -1212 -1 -1244 -18 -97 -49 -105 -177
-16 -232 32 -20 47 -20 1168 -20 l1135 0 4 -207 c5 -226 10 -249 67 -322 16
-20 53 -50 83 -66 71 -39 179 -42 248 -6 64 33 2046 2013 2061 2059 27 83 84
21 -1009 1115 -619 620 -1022 1016 -1047 1029 -55 29 -149 35 -213 14 -68 -23
-134 -83 -163 -148 -21 -49 -23 -70 -27 -255 l-4 -203 -1029 0 -1029 0 0 238
0 237 58 27 c117 54 214 169 247 292 13 47 16 89 13 153 -3 77 -9 100 -41 166
-157 331 -610 361 -808 55 -53 -82 -72 -164 -67 -281 3 -85 8 -103 41 -170 45
-91 136 -181 220 -217 l57 -25 0 -555 0 -555 -930 930 -930 930 927 928 928
927 5 -264 c5 -248 6 -266 26 -293 11 -15 36 -36 55 -45 32 -17 98 -18 957
-18 756 0 928 2 955 14 90 38 109 152 36 222 l-30 29 -859 3 -858 2 -4 208
c-5 225 -10 248 -67 321 -63 79 -203 121 -292 88z m296 -2256 c179 -81 135
-343 -60 -359 -170 -14 -268 178 -157 310 32 38 95 68 142 68 19 0 53 -9 75
-19z m2333 -2296 c49 -21 81 -52 103 -100 34 -74 22 -144 -34 -204 -76 -80
-186 -83 -266 -8 -100 95 -72 250 54 308 49 23 94 24 143 4z"/>
<path d="M6109 6682 c-134 -45 -229 -125 -289 -244 l-31 -63 -319 -5 -320 -5
-31 -31 c-38 -38 -51 -89 -34 -138 32 -93 43 -96 410 -96 249 0 305 -2 305
-14 0 -7 12 -35 26 -62 98 -185 301 -282 502 -240 264 55 425 319 354 578 -37
130 -145 253 -268 303 -92 37 -222 44 -305 17z m225 -286 c74 -44 108 -147 76
-231 -51 -133 -248 -154 -326 -35 -52 79 -41 183 28 247 53 50 155 59 222 19z"/>
<path d="M4619 6347 c-42 -28 -59 -60 -59 -112 0 -51 28 -97 73 -118 43 -21
67 -21 111 -3 136 57 92 256 -57 256 -19 0 -49 -10 -68 -23z"/>
<path d="M3352 5800 c-61 -37 -79 -122 -39 -181 48 -73 1 -69 885 -69 760 0
794 1 830 19 92 47 97 178 9 231 -31 19 -56 20 -842 20 -795 0 -811 0 -843
-20z"/>
<path d="M2694 1436 c-70 -31 -99 -109 -65 -179 40 -82 -23 -77 895 -77 l815
0 35 31 c77 67 61 187 -30 225 -48 20 -1603 20 -1650 0z"/>
<path d="M682 1219 c-260 -45 -434 -316 -367 -574 41 -154 175 -289 330 -329
160 -42 327 4 445 123 69 70 107 140 126 233 66 316 -214 602 -534 547z m161
-285 c69 -35 107 -95 107 -169 0 -60 -19 -103 -63 -142 -110 -97 -271 -45
-307 98 -21 82 27 181 105 215 42 18 120 17 158 -2z"/>
<path d="M1611 883 c-124 -61 -75 -253 64 -253 51 0 92 27 116 78 35 71 6 148
-67 178 -43 18 -71 17 -113 -3z"/>
</g>
</svg>
