<?xml version="1.0" encoding="iso-8859-1"?>
<!-- Generator: Adobe Illustrator 19.0.0, SVG Export Plug-In . SVG Version: 6.00 Build 0)  -->
<svg version="1.1" id="Capa_1" xmlns="http://www.w3.org/2000/svg" xmlns:xlink="http://www.w3.org/1999/xlink" x="0px" y="0px"
	 viewBox="0 0 512 512" style="enable-background:new 0 0 512 512;" xml:space="preserve">
<g>
	<path style="fill:#D8D8E4;" d="M170.398,256.002V55.821V20.269c0-9.136-11.045-13.711-17.505-7.251L10,155.911l142.893,142.893
		c6.46,6.46,17.505,1.885,17.505-7.251L170.398,256.002L170.398,256.002z"/>
	<path style="fill:#D8D8E4;" d="M359.107,213.195c-6.46-6.46-17.505-1.885-17.505,7.251v35.552v200.181v35.552
		c0,9.136,11.045,13.711,17.505,7.251L502,356.089L359.107,213.195z"/>
</g>
<circle style="fill:#FF5D5D;" cx="456.19" cy="55.821" r="24"/>
<circle style="fill:#FEA02C;" cx="170.4" cy="178.59" r="24"/>
<circle style="fill:#62CD4D;" cx="341.58" cy="346.74" r="24"/>
<circle style="fill:#4DBAF6;" cx="55.818" cy="456.22" r="24"/>
<path d="M381.101,65.82h42.587c4.281,13.882,17.229,24,32.497,24c18.748,0,34-15.252,34-34s-15.252-34-34-34
	c-15.268,0-28.217,10.118-32.497,24h-42.587c-5.523,0-10,4.477-10,10S375.578,65.82,381.101,65.82z M456.185,41.82
	c7.72,0,14,6.28,14,14s-6.28,14-14,14c-7.192,0-13.129-5.453-13.908-12.442c0.08-0.509,0.133-1.027,0.133-1.558
	s-0.054-1.049-0.133-1.558C443.056,47.274,448.993,41.82,456.185,41.82z"/>
<path d="M343.19,65.822c2.63,0,5.2-1.07,7.07-2.93c1.86-1.86,2.92-4.44,2.92-7.07s-1.06-5.21-2.92-7.07
	c-1.87-1.86-4.44-2.93-7.07-2.93c-2.64,0-5.21,1.07-7.08,2.93c-1.86,1.86-2.92,4.44-2.92,7.07s1.06,5.21,2.92,7.07
	C337.98,64.752,340.55,65.822,343.19,65.822z"/>
<path d="M509.071,349.017L366.178,206.125c-5.813-5.813-14.478-7.539-22.073-4.391c-7.596,3.146-12.503,10.492-12.503,18.713v25.551
	H180.398V211.09c13.882-4.281,24-17.229,24-32.497c0-18.748-15.252-34-34-34s-34,15.252-34,34c0,15.268,10.118,28.217,24,32.497
	v80.464c0,0.088-0.008,0.135-0.006,0.141c-0.062,0.069-0.241,0.143-0.302,0.143c-0.002,0,0.054,0.077-0.126-0.104L24.142,155.911
	L159.964,20.089c0.063-0.062,0.102-0.09,0.104-0.095c0.092,0.004,0.275,0.071,0.315,0.114c0,0,0.015,0.047,0.015,0.162v35.55
	c0,5.523,4.477,10,10,10h131.703c5.523,0,10-4.477,10-10s-4.477-10-10-10H180.398V20.269c0-8.221-4.908-15.566-12.503-18.713
	c-7.596-3.146-16.259-1.422-22.073,4.391L2.929,148.84c-3.905,3.905-3.905,10.237,0,14.142l142.894,142.894
	c5.813,5.813,14.478,7.536,22.073,4.39s12.503-10.491,12.503-18.712v-25.556h151.185v48.243c-13.882,4.281-24,17.229-24,32.497
	c0,18.748,15.252,34,34,34s34-15.252,34-34c0-15.268-10.118-28.217-24-32.497l0.018-93.794c0-0.088,0.008-0.136,0.006-0.141
	c0.062-0.069,0.241-0.143,0.301-0.143c0.001,0-0.055-0.078,0.127,0.104l135.822,135.822L352.036,491.911
	c-0.062,0.062-0.102,0.09-0.104,0.095c-0.1,0.021-0.276-0.07-0.316-0.113c0,0-0.015-0.047-0.015-0.162v-35.552
	c0-5.523-4.477-10-10-10H168c-5.523,0-10,4.477-10,10s4.477,10,10,10h163.602v25.552c0,8.221,4.908,15.566,12.503,18.712
	c2.521,1.044,5.159,1.552,7.772,1.552c5.26,0,10.417-2.058,14.301-5.942L509.071,363.16
	C512.976,359.254,512.976,352.922,509.071,349.017z M170.398,164.593c7.72,0,14,6.28,14,14s-6.28,14-14,14s-14-6.28-14-14
	S162.679,164.593,170.398,164.593z M341.583,360.737c-7.72,0-14-6.28-14-14s6.28-14,14-14s14,6.28,14,14
	S349.303,360.737,341.583,360.737z"/>
<path d="M122.33,446.182c-2.63,0-5.21,1.06-7.07,2.93c-1.86,1.86-2.93,4.44-2.93,7.07s1.07,5.21,2.93,7.07
	c1.86,1.86,4.44,2.93,7.07,2.93c2.64,0,5.21-1.07,7.07-2.93c1.87-1.86,2.93-4.44,2.93-7.07s-1.06-5.21-2.93-7.07
	C127.54,447.242,124.97,446.182,122.33,446.182z"/>
<path d="M55.818,422.216c-18.748,0-34,15.252-34,34s15.252,34,34,34s34-15.252,34-34S74.566,422.216,55.818,422.216z
	 M55.818,470.216c-7.72,0-14-6.28-14-14s6.28-14,14-14s14,6.28,14,14S63.538,470.216,55.818,470.216z"/>
<path d="M240.585,96.002c0,5.523,4.477,10,10,10h112.748c5.523,0,10-4.477,10-10s-4.477-10-10-10H250.585
	C245.062,86.002,240.585,90.479,240.585,96.002z"/>
<path d="M313.813,426.002c5.523,0,10-4.477,10-10s-4.477-10-10-10H201.066c-5.523,0-10,4.477-10,10s4.477,10,10,10H313.813z"/>
<g>
</g>
<g>
</g>
<g>
</g>
<g>
</g>
<g>
</g>
<g>
</g>
<g>
</g>
<g>
</g>
<g>
</g>
<g>
</g>
<g>
</g>
<g>
</g>
<g>
</g>
<g>
</g>
<g>
</g>
</svg>
