<svg xmlns="http://www.w3.org/2000/svg" viewBox="0 0 355.31 163.29">
    <defs>
        <style>
            .cls-1{fill:#9f9fb7;}.cls-2{fill:#c0c0cc;}.cls-3{fill:#d8d8e4;}.cls-4{fill:#69c254;}.cls-5{fill:#ff5c5d;}.cls-6{fill:#dbede9;}.cls-7{fill:#c9d7c1;}.cls-8{fill:#ff9c23;}
        </style>
    </defs>
    <title>radio</title>
    <path d="M159 97h-17V74h12l5 5v18z" class="cls-1"/>
    <path d="M158 95h-17V72h12l5 5v18zM48.38 40.2l16.03-9.25a1.5 1.5-30 0 1 2.05.55 1.5 1.5-30 0 1-.54 2.05L49.9 42.8l-1.5-2.6z"
          class="cls-2"/>
    <rect width="41" height="5" x="11.75" y="48.75" class="cls-1" rx="2.5"
          transform="matrix(.87 -.5 .5 .87 -21.3 22.99)"/>
    <rect width="74" height="44" x="9.5" y="61.5" class="cls-3" rx="5"/>
    <rect width="25" height="10.5" x="48.5" y="71.5" class="cls-4" rx="5"/>
    <circle cx="31.5" cy="83.5" r="12" class="cls-1"/>
    <path d="M65 29a1 1 0 0 1-1-1v-6a1 1 0 0 1 2 0v6a1 1 0 0 1-1 1zM65 44a1 1 0 0 1-1-1v-6a1 1 0 0 1 2 0v6a1 1 0 0 1-1 1zM61.52 30a1 1 0 0 1-.7-.3l-3-2.94a1 1 0 0 1 1.4-1.4l2.96 2.94a1 1 0 0 1 0 1.4 1 1 0 0 1-.66.3zM71.42 39.92a1 1 0 0 1-.7-.3l-3-3a1 1 0 1 1 1.4-1.4l2.96 2.95a1 1 0 0 1 0 1.4 1 1 0 0 1-.66.35zM75.5 33.5h-6a1 1 0 0 1 0-2h6a1 1 0 0 1 0 2zM68.48 30a1 1 0 0 1-.7-.3 1 1 0 0 1 0-1.4l3-2.95a1 1 0 0 1 1.4 1.4l-2.95 2.96a1 1 0 0 1-.75.3z"
          class="cls-5"/>
    <rect width="26" height="44" x="313" y="62" class="cls-3" rx="5"/>
    <rect width="20" height="33" x="316" y="65" class="cls-1" rx="2"/>
    <circle cx="326" cy="102" r="2" class="cls-1"/>
    <path d="M157 93h-17V70h12l5 5v18z" class="cls-6"/>
    <path d="M152 70l5 5h-5v-5z" class="cls-7"/>
    <path d="M157 93h-17V70h12l5 5v18z" class="cls-3"/>
    <path d="M152 70l5 5h-5v-5z" class="cls-2"/>
    <path d="M257 97h-17V74h12l5 5v18z" class="cls-1"/>
    <path d="M256 95h-17V72h12l5 5v18z" class="cls-2"/>
    <path d="M255 93h-17V70h12l5 5v18z" class="cls-6"/>
    <path d="M250 70l5 5h-5v-5z" class="cls-7"/>
    <path d="M255 93h-17V70h12l5 5v18z" class="cls-3"/>
    <path d="M250 70l5 5h-5v-5z" class="cls-2"/>
    <path d="M207.52 98h-4a1 1 0 1 1 0-2h4a1 1 0 0 1 0 2zm-8 0h-4a1 1 0 1 1 0-2h4a1 1 0 0 1 0 2zm-8 0H191a1 1 0 0 1-1-1v-1a1 1 0 0 1-1-1v-.48a1 1 0 0 1 1-1 1 1 0 0 1 .85.48h.15a1 1 0 0 1 1 1v1.12a1 1 0 0 1-.48 1.88zM208 94.48a1 1 0 0 1-1-1v-4a1 1 0 0 1 2 0v4a1 1 0 0 1-1 1zm-19-2a1 1 0 0 1-1-1v-4a1 1 0 1 1 2 0v4a1 1 0 0 1-1 1.04zm19-6a1 1 0 0 1-1-1v-4a1 1 0 0 1 2 0v4a1 1 0 0 1-1 1zm-19-2a1 1 0 0 1-1-1v-4a1 1 0 1 1 2 0v4a1 1 0 0 1-1 1.04zM207 79a1 1 0 0 1-1-1v-.6l-.7-.7a1 1 0 0 1-.3-.7v-.6l-.12-.1a1 1 0 1 1 1.4-1.42l.43.4a1 1 0 0 1 .3.72v.6l.7.7a1 1 0 0 1 .3.7v1a1 1 0 0 1-1 1zm-18-2.48a1 1 0 0 1-1-1v-4a1 1 0 1 1 2 0v4a1 1 0 0 1-1 1zm13.76-3.76a1 1 0 0 1-.7-.3L200.6 71h-1.12a1 1 0 0 1 0-2H201a1 1 0 0 1 .7.3l1.75 1.74a1 1 0 0 1 0 1.4 1 1 0 0 1-.7.32zM195.48 71h-4a1 1 0 0 1 0-2h4a1 1 0 0 1 0 2z"
          class="cls-3"/>
    <path d="M110 77l-7-6v3h-7v6h7v3l7-6zM303 77l-7-6v3h-7v6h7v3l7-6zM287 89l7 6v-3h7v-6h-7v-3l-7 6zM101.5 87h-.5a1 1 0 0 1-1-1v-.5a1 1 0 0 1 1-1 2.6 2.6 0 0 1 1.5 1.5 1 1 0 0 1-1 1zM101 84.5a1 1 0 0 1-.6-.2 1 1 0 0 1-.54-.32 1 1 0 0 1 .1-1.4l.4-.34a1 1 0 0 1 1.06-.15 1 1 0 0 1 .58.9v.5a1 1 0 0 1-1 1zM97.22 87.24a1 1 0 0 1-.76-.35 1 1 0 0 1 .1-1.42l.57-.48a1 1 0 1 1 1.3 1.52l-.56.48a1 1 0 0 1-.65.24zM94.38 90.33a1 1 0 0 1-.65-.25l-.38-.32a1 1 0 0 1 0-1.52l.38-.32a1 1 0 0 1 1.4.1 1.34 1.34 0 0 1-.75 2.3zM97.78 93.24a1 1 0 0 1-.65-.24l-.56-.48a1 1 0 0 1 1.3-1.52l.56.48a1 1 0 0 1 .1 1.4 1 1 0 0 1-.75.36zM101 96a1 1 0 0 1-.65-.24l-.38-.33a1 1 0 0 1-.1-1.43 1 1 0 0 1 .53-.32 1 1 0 0 1 .6-.2 1 1 0 0 1 1 1V95a1 1 0 0 1-.58.9 1.06 1.06 0 0 1-.42.1zM101 93.5a1 1 0 0 1-1-1V92a1 1 0 0 1 1-1h.5a1 1 0 0 1 1 1 2.6 2.6 0 0 1-1.5 1.5zM104.77 93h-.54a1 1 0 0 1 0-2h.54a1 1 0 0 1 0 2zM108 93h-.5a1 1 0 0 1-1-1 2.6 2.6 0 0 1 1.5-1.5 1 1 0 0 1 1 1v.5a1 1 0 0 1-1 1zM108 87.5a2.6 2.6 0 0 1-1.5-1.5 1 1 0 0 1 1-1h.5a1 1 0 0 1 1 1v.5a1 1 0 0 1-1 1zM104.77 87h-.54a1 1 0 0 1 0-2h.54a1 1 0 0 1 0 2z"
          class="cls-8"/>
</svg>
