<svg xmlns="http://www.w3.org/2000/svg" viewBox="0 0 134.31 83.29">
    <defs>
        <style>
            .cls-1{fill:#494949;}.cls-2{fill:#9f9fb7;}.cls-3{fill:#c0c0cc;}.cls-4{fill:#dbede9;}.cls-5{fill:#c9d7c1;}.cls-6{fill:#d8d8e4;}.cls-7{fill:#ff9c23;}.cls-8{fill:#abff94;}.cls-9{fill:#81dd6b;}.cls-10{fill:#fff;}
        </style>
    </defs>
    <title>file</title>
    <path d="M92.4 65.7h-2.2V68h-1.37v-5.7h3.8v1.05H90.2v1.3h2.2zM93.13 62.66a.57.57 0 0 1 .2-.46.75.75 0 0 1 .53-.18.76.76 0 0 1 .53.18.63.63 0 0 1 0 .92.76.76 0 0 1-.54.18.75.75 0 0 1-.52-.18.57.57 0 0 1-.2-.46zm1.4 5.34H93.2v-4.25h1.33zM96.73 68H95.4v-6h1.33zM99.6 68.06a2.2 2.2 0 0 1-1.6-.58 2 2 0 0 1-.6-1.5v-.12a2.63 2.63 0 0 1 .24-1.15 1.72 1.72 0 0 1 .7-.75 2 2 0 0 1 1.1-.28 1.82 1.82 0 0 1 1.4.56 2.14 2.14 0 0 1 .52 1.54v.5h-2.6a1 1 0 0 0 .3.57.94.94 0 0 0 .62.2 1.15 1.15 0 0 0 1-.44l.6.7a1.67 1.67 0 0 1-.7.56 2.44 2.44 0 0 1-1 .2zm-.16-3.37c-.4 0-.62.25-.7.76h1.34v-.1a.7.7 0 0 0-.16-.5.65.65 0 0 0-.48-.17zM106.88 66.47a.57.57 0 0 0-.2-.47 2.64 2.64 0 0 0-.76-.35 5.56 5.56 0 0 1-.87-.35 1.66 1.66 0 0 1-1.1-1.5 1.3 1.3 0 0 1 .27-.82 1.8 1.8 0 0 1 .78-.57 3.08 3.08 0 0 1 1.13-.2 2.77 2.77 0 0 1 1.1.23 1.85 1.85 0 0 1 .75.62 1.64 1.64 0 0 1 .27.93h-1.36a.67.67 0 0 0-.23-.54.8.8 0 0 0-.57-.2.9.9 0 0 0-.58.17.52.52 0 0 0-.22.42.5.5 0 0 0 .24.4 3.07 3.07 0 0 0 .82.37 4.82 4.82 0 0 1 1 .4 1.63 1.63 0 0 1 .92 1.46 1.36 1.36 0 0 1-.56 1.17 2.45 2.45 0 0 1-1.54.43 3.13 3.13 0 0 1-1.25-.25 1.9 1.9 0 0 1-.85-.67 1.77 1.77 0 0 1-.28-1h1.37a.88.88 0 0 0 .24.68 1.14 1.14 0 0 0 .78.23.9.9 0 0 0 .54-.15.5.5 0 0 0 .16-.4zM108.9 62.66a.57.57 0 0 1 .2-.46.77.77 0 0 1 .52-.18.75.75 0 0 1 .52.18.6.6 0 0 1 0 .92.75.75 0 0 1-.52.18.77.77 0 0 1-.53-.18.57.57 0 0 1-.2-.46zm1.4 5.32H109v-4.23h1.33zM112.65 67h1.92v1H111v-.74l1.88-2.47h-1.8v-1h3.47v.7zM117.26 68.06a2.2 2.2 0 0 1-1.58-.58 2 2 0 0 1-.6-1.5v-.12a2.63 2.63 0 0 1 .24-1.15 1.78 1.78 0 0 1 .68-.7 2.07 2.07 0 0 1 1.1-.28 1.82 1.82 0 0 1 1.4.56 2.14 2.14 0 0 1 .52 1.54v.5h-2.62a.88.88 0 0 0 .93.77 1.15 1.15 0 0 0 1-.45l.6.7a1.77 1.77 0 0 1-.7.56 2.44 2.44 0 0 1-.97.16zm-.15-3.37c-.38 0-.6.25-.68.76h1.33v-.1a.58.58 0 0 0-.64-.67zM120.4 63.58a.77.77 0 0 1 .5.2.62.62 0 0 1 .2.46.63.63 0 0 1-.2.48.77.77 0 0 1-.5.18.75.75 0 0 1-.53-.18.63.63 0 0 1-.2-.48.6.6 0 0 1 .2-.47.75.75 0 0 1 .52-.2zm0 3.12a.73.73 0 0 1 .5.2.62.62 0 0 1 .2.46.66.66 0 0 1-.2.48.77.77 0 0 1-.5.18.7.7 0 0 1-.53-.2.63.63 0 0 1 0-.93.7.7 0 0 1 .52-.2zM95.23 77.58H93.9v-4.2l-1.3.37v-1l2.5-.86h.13zM100.9 75.25a2.74 2.74 0 0 1-.52 1.78 1.8 1.8 0 0 1-1.46.63 1.8 1.8 0 0 1-1.47-.66 2.7 2.7 0 0 1-.52-1.78v-1a2.7 2.7 0 0 1 .52-1.78 1.77 1.77 0 0 1 1.46-.63 1.8 1.8 0 0 1 1.48.64 2.75 2.75 0 0 1 .5 1.78zm-1.32-1.2a2.14 2.14 0 0 0-.16-.92.54.54 0 0 0-.5-.3.5.5 0 0 0-.5.28 1.84 1.84 0 0 0-.17.86v1.46a2 2 0 0 0 .16.93.55.55 0 0 0 .52.3.5.5 0 0 0 .5-.3 1.86 1.86 0 0 0 .16-.9zM102.78 74.18h.62a.65.65 0 0 0 .74-.72.62.62 0 0 0-.14-.46.64.64 0 0 0-.5-.17.73.73 0 0 0-.5.17.46.46 0 0 0-.2.38h-1.3a1.38 1.38 0 0 1 .25-.8 1.6 1.6 0 0 1 .7-.55 2.37 2.37 0 0 1 1-.2 2.32 2.32 0 0 1 1.5.43 1.43 1.43 0 0 1 .54 1.2 1.22 1.22 0 0 1-.24.7 1.65 1.65 0 0 1-.65.52 1.48 1.48 0 0 1 .72.5 1.3 1.3 0 0 1 .26.82 1.47 1.47 0 0 1-.58 1.2 2.45 2.45 0 0 1-1.54.46 2.43 2.43 0 0 1-1-.22 1.57 1.57 0 0 1-.72-.6 1.54 1.54 0 0 1-.25-.84h1.32a.6.6 0 0 0 .2.45.73.73 0 0 0 .53.2.75.75 0 0 0 .55-.2.66.66 0 0 0 .2-.5.78.78 0 0 0-.2-.6.93.93 0 0 0-.6-.18h-.64zM108.1 71.9l1.26 4 1.27-4h1.8v5.68h-1.37v-1.33l.13-2.72-1.38 4h-.9l-1.4-4 .14 2.72v1.33h-1.37v-5.7zM113.3 77.58v-5.7h2a3 3 0 0 1 1.67.4 1.35 1.35 0 0 1 .57 1.18 1.4 1.4 0 0 1-.2.76 1.28 1.28 0 0 1-.6.46 1.15 1.15 0 0 1 .68.43 1.3 1.3 0 0 1 .24.8 1.5 1.5 0 0 1-.53 1.25 2.53 2.53 0 0 1-1.57.43zm1.38-3.32h.7a1 1 0 0 0 .65-.16.6.6 0 0 0 .2-.48.6.6 0 0 0-.2-.5 1.1 1.1 0 0 0-.68-.17h-.67zm0 .9v1.36h.9a.8.8 0 0 0 .56-.17.56.56 0 0 0 .2-.47.63.63 0 0 0-.7-.72zM16.9 65.7h-2.2V68h-1.37v-5.7h3.8v1.05H14.7v1.3h2.2zM17.63 62.66a.57.57 0 0 1 .2-.46.75.75 0 0 1 .53-.18.76.76 0 0 1 .53.18.63.63 0 0 1 0 .92.76.76 0 0 1-.54.18.75.75 0 0 1-.52-.18.57.57 0 0 1-.2-.46zM19 68h-1.3v-4.25H19zM21.23 68H19.9v-6h1.33zM24.1 68.06a2.2 2.2 0 0 1-1.6-.58 2 2 0 0 1-.6-1.5v-.12a2.63 2.63 0 0 1 .25-1.15 1.72 1.72 0 0 1 .7-.75 2 2 0 0 1 1.1-.28 1.82 1.82 0 0 1 1.4.56 2.14 2.14 0 0 1 .52 1.54v.5h-2.62a1 1 0 0 0 .3.57.94.94 0 0 0 .63.2 1.15 1.15 0 0 0 1-.44l.6.7a1.67 1.67 0 0 1-.7.56 2.44 2.44 0 0 1-1 .2zm-.16-3.37c-.4 0-.62.25-.7.76h1.34v-.1a.7.7 0 0 0-.16-.5.65.65 0 0 0-.48-.17zM31.38 66.47a.57.57 0 0 0-.2-.47 2.64 2.64 0 0 0-.76-.35 5.56 5.56 0 0 1-.87-.35 1.66 1.66 0 0 1-1.1-1.5 1.3 1.3 0 0 1 .27-.82 1.8 1.8 0 0 1 .78-.57 3.08 3.08 0 0 1 1.13-.2 2.77 2.77 0 0 1 1.1.23 1.85 1.85 0 0 1 .75.62 1.64 1.64 0 0 1 .27.93H31.4a.67.67 0 0 0-.23-.54.8.8 0 0 0-.57-.2.9.9 0 0 0-.58.17.52.52 0 0 0-.22.42.5.5 0 0 0 .24.4 3.07 3.07 0 0 0 .82.37 4.82 4.82 0 0 1 1 .4 1.63 1.63 0 0 1 .92 1.46 1.36 1.36 0 0 1-.56 1.17 2.45 2.45 0 0 1-1.54.43 3.13 3.13 0 0 1-1.25-.25 1.9 1.9 0 0 1-.85-.67 1.77 1.77 0 0 1-.28-1h1.37a.88.88 0 0 0 .24.68 1.14 1.14 0 0 0 .78.23.9.9 0 0 0 .54-.15.5.5 0 0 0 .16-.4zM33.4 62.66a.57.57 0 0 1 .2-.46.77.77 0 0 1 .52-.18.75.75 0 0 1 .52.18.6.6 0 0 1 0 .92.75.75 0 0 1-.52.18.77.77 0 0 1-.53-.18.57.57 0 0 1-.2-.46zM34.8 68h-1.34v-4.25h1.33zM37.15 67h1.92v1h-3.6v-.74l1.9-2.47h-1.8v-1H39v.7zM41.76 68.06a2.2 2.2 0 0 1-1.58-.58 2 2 0 0 1-.6-1.5v-.12a2.63 2.63 0 0 1 .24-1.15 1.78 1.78 0 0 1 .7-.75 2.07 2.07 0 0 1 1.1-.28 1.82 1.82 0 0 1 1.4.56 2.14 2.14 0 0 1 .52 1.54v.5h-2.62a.88.88 0 0 0 .93.77 1.15 1.15 0 0 0 1-.44l.6.7a1.77 1.77 0 0 1-.7.56 2.44 2.44 0 0 1-1 .2zm-.15-3.37c-.38 0-.6.25-.68.76h1.33v-.1a.58.58 0 0 0-.64-.67zM44.9 63.58a.77.77 0 0 1 .5.2.62.62 0 0 1 .2.46.63.63 0 0 1-.2.48.77.77 0 0 1-.5.18.75.75 0 0 1-.53-.18.63.63 0 0 1-.2-.48.6.6 0 0 1 .2-.47.75.75 0 0 1 .52-.2zm0 3.12a.73.73 0 0 1 .5.2.62.62 0 0 1 .2.46.66.66 0 0 1-.2.48.77.77 0 0 1-.5.18.7.7 0 0 1-.53-.2.63.63 0 0 1 0-.93.7.7 0 0 1 .52-.2zM20.77 72.6l-2.13 5h-1.4l2.14-4.68h-2.7v-1h4.1zM25.4 75.25a2.74 2.74 0 0 1-.52 1.75 1.8 1.8 0 0 1-1.46.63A1.8 1.8 0 0 1 22 77a2.7 2.7 0 0 1-.52-1.78v-1a2.7 2.7 0 0 1 .52-1.78 1.77 1.77 0 0 1 1.46-.63 1.8 1.8 0 0 1 1.47.64 2.75 2.75 0 0 1 .5 1.78zm-1.32-1.2a2.14 2.14 0 0 0-.16-.92.54.54 0 0 0-.5-.3.5.5 0 0 0-.5.28 1.84 1.84 0 0 0-.17.86v1.46a2 2 0 0 0 .16.93.55.55 0 0 0 .52.3.5.5 0 0 0 .5-.3 1.86 1.86 0 0 0 .16-.9zM29.9 73.4a1.27 1.27 0 0 1-.2.74 1.57 1.57 0 0 1-.56.5 1.58 1.58 0 0 1 .65.55 1.4 1.4 0 0 1 .2.8 1.5 1.5 0 0 1-.53 1.2 2.6 2.6 0 0 1-2.9 0 1.48 1.48 0 0 1-.54-1.2 1.5 1.5 0 0 1 .23-.8 1.67 1.67 0 0 1 .67-.55 1.42 1.42 0 0 1-.57-.5 1.28 1.28 0 0 1-.2-.74 1.48 1.48 0 0 1 .5-1.16 2.38 2.38 0 0 1 2.72 0 1.45 1.45 0 0 1 .53 1.17zm-1.2 2.5a.73.73 0 0 0-.17-.53.65.65 0 0 0-.48-.2.62.62 0 0 0-.48.2.7.7 0 0 0-.2.54.72.72 0 0 0 .2.54.6.6 0 0 0 .48.2.62.62 0 0 0 .48-.2.77.77 0 0 0 .18-.53zm-.7-3.07a.47.47 0 0 0-.4.17.78.78 0 0 0-.14.48.8.8 0 0 0 .14.5.54.54 0 0 0 .82 0 .8.8 0 0 0 .13-.5.78.78 0 0 0-.13-.48.5.5 0 0 0-.42-.17zM32.6 71.9l1.26 4 1.27-4h1.8v5.68h-1.37v-1.33l.13-2.72-1.38 4h-.9l-1.4-4 .14 2.72v1.33H30.8v-5.7zM37.8 77.58v-5.7h2.05a3 3 0 0 1 1.67.4 1.35 1.35 0 0 1 .57 1.18 1.4 1.4 0 0 1-.2.76 1.28 1.28 0 0 1-.6.46 1.15 1.15 0 0 1 .67.43 1.3 1.3 0 0 1 .24.8 1.5 1.5 0 0 1-.52 1.25 2.53 2.53 0 0 1-1.57.43zm1.38-3.32h.7a1 1 0 0 0 .65-.16.6.6 0 0 0 .2-.48.6.6 0 0 0-.2-.5 1.1 1.1 0 0 0-.68-.17h-.67zm0 .9v1.36h.9a.8.8 0 0 0 .56-.17.56.56 0 0 0 .2-.47.63.63 0 0 0-.7-.72zM102 11.28a2.2 2.2 0 0 1-.93.56 3.8 3.8 0 0 1-1.33.22 2.38 2.38 0 0 1-1.8-.7 2.77 2.77 0 0 1-.7-1.9V9a3.38 3.38 0 0 1 .3-1.47 2.16 2.16 0 0 1 .85-1 2.38 2.38 0 0 1 1.27-.34 2.48 2.48 0 0 1 1.65.48 2.07 2.07 0 0 1 .68 1.47h-1.32a1.06 1.06 0 0 0-.3-.68 1 1 0 0 0-.67-.2.9.9 0 0 0-.8.43 2.38 2.38 0 0 0-.33 1.3v.3a2.2 2.2 0 0 0 .3 1.27 1 1 0 0 0 .9.43 1.16 1.16 0 0 0 .8-.24v-.88h-1v-.94H102zM104.24 11h1.92v1h-3.6v-.74l1.9-2.47h-1.8v-1h3.46v.7zM106.8 6.66a.6.6 0 0 1 .2-.46.75.75 0 0 1 .52-.18.76.76 0 0 1 .53.18.58.58 0 0 1 .2.46.57.57 0 0 1-.2.46.76.76 0 0 1-.53.18.75.75 0 0 1-.52-.18.57.57 0 0 1-.2-.46zm1.4 5.32h-1.33V7.75h1.32zM112.93 9.9a2.52 2.52 0 0 1-.45 1.57 1.4 1.4 0 0 1-1.2.6 1.2 1.2 0 0 1-1-.44v2H109V7.75h1.23v.4a1.23 1.23 0 0 1 1-.48 1.44 1.44 0 0 1 1.2.58 2.56 2.56 0 0 1 .45 1.58zm-1.32-.1c0-.74-.2-1.1-.65-1.1a.6.6 0 0 0-.62.33v1.66a.63.63 0 0 0 .67.3c.42 0 .64-.36.65-1.08zM21.87 6.3h1.37v3.9a1.82 1.82 0 0 1-.25 1 1.65 1.65 0 0 1-.7.65 2.15 2.15 0 0 1-1 .24 2.1 2.1 0 0 1-1.46-.48 1.72 1.72 0 0 1-.5-1.33h1.36a1 1 0 0 0 .14.56.55.55 0 0 0 .45.17.5.5 0 0 0 .43-.2 1 1 0 0 0 .15-.6zM27 10.47a.55.55 0 0 0-.22-.47 2.7 2.7 0 0 0-.74-.35 6.17 6.17 0 0 1-.88-.35 1.64 1.64 0 0 1-1.1-1.5 1.35 1.35 0 0 1 .3-.8 1.8 1.8 0 0 1 .8-.57 3.1 3.1 0 0 1 1.12-.2 2.73 2.73 0 0 1 1.1.22 1.76 1.76 0 0 1 .76.63 1.58 1.58 0 0 1 .27.92H27a.7.7 0 0 0-.2-.54.83.83 0 0 0-.6-.2.93.93 0 0 0-.57.17.5.5 0 0 0-.2.4.5.5 0 0 0 .22.4 3 3 0 0 0 .83.38 5.37 5.37 0 0 1 1 .4 1.65 1.65 0 0 1 .92 1.48 1.4 1.4 0 0 1-.56 1.17 2.48 2.48 0 0 1-1.55.43 3.13 3.13 0 0 1-1.26-.25 1.92 1.92 0 0 1-.84-.68 1.77 1.77 0 0 1-.3-1h1.4a.87.87 0 0 0 .24.67 1.1 1.1 0 0 0 .76.22.87.87 0 0 0 .54-.15.5.5 0 0 0 .16-.43zM33.93 9.25a3.46 3.46 0 0 1-.3 1.48 2.33 2.33 0 0 1-.9 1 2.45 2.45 0 0 1-1.28.35 2.4 2.4 0 0 1-1.3-.34 2.25 2.25 0 0 1-.87-1 3.27 3.27 0 0 1-.28-1.4V9a3.25 3.25 0 0 1 .3-1.47 2.24 2.24 0 0 1 .9-1 2.57 2.57 0 0 1 2.58 0 2.27 2.27 0 0 1 .88 1A3.2 3.2 0 0 1 33.93 9zM32.53 9a2.36 2.36 0 0 0-.28-1.28.9.9 0 0 0-.8-.44c-.7 0-1.06.5-1.1 1.54v.42a2.53 2.53 0 0 0 .27 1.3 1 1 0 0 0 1.63 0 2.37 2.37 0 0 0 .28-1.28zM39.38 12H38l-2-3.56V12h-1.37V6.3H36l2 3.53V6.3h1.36z"
          class="cls-1"/>
    <path d="M39 49H22V26h12l5 5v18z" class="cls-2"/>
    <path d="M38 47H21V24h12l5 5v18z" class="cls-3"/>
    <path d="M37 45H20V22h12l5 5v18z" class="cls-4"/>
    <path d="M32 22l5 5h-5v-5z" class="cls-5"/>
    <path d="M37 45H20V22h12l5 5v18z" class="cls-6"/>
    <path d="M32 22l5 5h-5v-5z" class="cls-3"/>
    <path d="M73 36l-7-6v3h-7v6h7v3l7-6z" class="cls-7"/>
    <rect width="20" height="27" x="95" y="22" class="cls-8" rx="2"/>
    <rect width="24" height="10" x="93" y="37" class="cls-9" rx="2"/>
    <path d="M102.45 44.1a1.8 1.8 0 0 1-1.4-.64 2.08 2.08 0 0 1-.4-.7 2.37 2.37 0 0 1-.13-.85 2.56 2.56 0 0 1 .15-.88 2.12 2.12 0 0 1 .4-.72 2 2 0 0 1 1.47-.65 1.7 1.7 0 0 1 .86.2 1.62 1.62 0 0 1 .6.6v-.7h1.15v4a2 2 0 0 1-.2.88 1.82 1.82 0 0 1-.5.68 2.4 2.4 0 0 1-.8.44 3.64 3.64 0 0 1-1 .14 2.9 2.9 0 0 1-1.2-.22 2.5 2.5 0 0 1-.87-.65l.7-.7a1.67 1.67 0 0 0 .6.43 1.76 1.76 0 0 0 .77.16 1.43 1.43 0 0 0 .46-.08 1.07 1.07 0 0 0 .4-.2 1 1 0 0 0 .25-.36 1.35 1.35 0 0 0 .1-.52v-.42a1.32 1.32 0 0 1-.58.55 1.84 1.84 0 0 1-.82.23zm.45-1.05a.94.94 0 0 0 .55-.17 1.18 1.18 0 0 0 .37-.43v-.92a1.25 1.25 0 0 0-.4-.55 1 1 0 0 0-.58-.2.77.77 0 0 0-.4.1.8.8 0 0 0-.3.25 1 1 0 0 0-.2.37 1.35 1.35 0 0 0-.07.44 1 1 0 0 0 .08.44 1 1 0 0 0 .22.36 1.24 1.24 0 0 0 .32.23 1.1 1.1 0 0 0 .4.08zM105.8 43.3l2.2-2.64h-2.1v-.92h3.5v.8l-2.22 2.63h2.27v.92h-3.65z"
          class="cls-10"/>
    <path d="M22 25h7v2h-7zM22 29h13v2H22zM22 33h13v2H22z" class="cls-3"/>
    <path d="M98 25h7v2h-7zM98 29h14v2H98zM98 33h14v2H98z" class="cls-9"/>
</svg>
