<svg id="Layer_1" data-name="Layer 1" xmlns="http://www.w3.org/2000/svg" viewBox="0 0 293.67 64"><defs><style>.cls-1,.cls-2{fill:#2e2e2e;}.cls-1{fill-rule:evenodd;}.cls-3{fill:#f8f8f8;}.cls-4{fill:#ff5d5d;}.cls-5{fill:#fea02c;}.cls-6{fill:#62cd4d;}.cls-7{fill:#4dbaf6;}</style></defs><title>sajya</title><path class="cls-1" d="M91.45,41.76h11.2V46H86.18V20.41h5.27V41.76ZM116.36,46a5.67,5.67,0,0,1-.51-1.71,6.15,6.15,0,0,1-4.8,2.06,6.74,6.74,0,0,1-4.63-1.62,5.16,5.16,0,0,1-1.84-4.07A5.37,5.37,0,0,1,106.82,36a11.06,11.06,0,0,1,6.48-1.64h2.34V33.29a3.15,3.15,0,0,0-.68-2.11,2.68,2.68,0,0,0-2.14-.79,3,3,0,0,0-2,.62,2.1,2.1,0,0,0-.73,1.68H105a5.06,5.06,0,0,1,1-3,6.68,6.68,0,0,1,2.89-2.21,10.53,10.53,0,0,1,4.18-.8,8.3,8.3,0,0,1,5.58,1.77,6.15,6.15,0,0,1,2.07,5v8.25a9.08,9.08,0,0,0,.75,4.09V46Zm-4.2-3.53a4.4,4.4,0,0,0,2.07-.5,3.35,3.35,0,0,0,1.41-1.35V37.35h-1.9c-2.54,0-3.9.88-4.06,2.64l0,.3a2,2,0,0,0,.67,1.56,2.62,2.62,0,0,0,1.83.62Zm23.17-10.73a14.56,14.56,0,0,0-1.83-.14q-2.88,0-3.78,1.95V46h-5.08V27h4.8l.14,2.27a4.7,4.7,0,0,1,4.24-2.62,5.12,5.12,0,0,1,1.58.23ZM148.26,46a6,6,0,0,1-.51-1.71A6.15,6.15,0,0,1,143,46.35a6.72,6.72,0,0,1-4.63-1.62,5.16,5.16,0,0,1-1.84-4.07A5.34,5.34,0,0,1,138.73,36a11,11,0,0,1,6.48-1.64h2.33V33.29a3.14,3.14,0,0,0-.67-2.11,2.7,2.7,0,0,0-2.14-.79,3,3,0,0,0-2,.62,2.07,2.07,0,0,0-.73,1.68h-5.08a5.06,5.06,0,0,1,1-3,6.71,6.71,0,0,1,2.88-2.21,10.58,10.58,0,0,1,4.19-.8,8.3,8.3,0,0,1,5.58,1.77,6.18,6.18,0,0,1,2.06,5v8.25a9.06,9.06,0,0,0,.76,4.09V46Zm-4.2-3.53a4.47,4.47,0,0,0,2.08-.5,3.32,3.32,0,0,0,1.4-1.35V37.35h-1.89q-3.83,0-4.06,2.64l0,.3a2,2,0,0,0,.67,1.56,2.57,2.57,0,0,0,1.82.62Zm19.34-2.68L166.93,27h5.31l-6.41,19H161l-6.41-19h5.31ZM183,46.35a9.29,9.29,0,0,1-6.81-2.57A9.12,9.12,0,0,1,173.56,37v-.5a11.46,11.46,0,0,1,1.11-5.12,8.21,8.21,0,0,1,3.13-3.48,8.88,8.88,0,0,1,4.64-1.22,7.88,7.88,0,0,1,6.14,2.46c1.5,1.64,2.24,4,2.24,7v2.07H178.71a4.67,4.67,0,0,0,1.49,3,4.47,4.47,0,0,0,3.13,1.13,5.48,5.48,0,0,0,4.59-2.13l2.5,2.79a7.69,7.69,0,0,1-3.1,2.53,10.19,10.19,0,0,1-4.32.9Zm-.58-15.61a3.16,3.16,0,0,0-2.45,1,5.27,5.27,0,0,0-1.21,2.92h7.07v-.41a3.79,3.79,0,0,0-.92-2.61,3.28,3.28,0,0,0-2.49-.92ZM199.06,46H194V19h5.09Z"/><path class="cls-2" d="M229.26,39.71a4.17,4.17,0,0,0-1.49-3.37A15.88,15.88,0,0,0,222.3,34a19.26,19.26,0,0,1-5.8-2.44,5.91,5.91,0,0,1-.19-9.66,10,10,0,0,1,6.18-1.83,10.18,10.18,0,0,1,4.56,1,7.4,7.4,0,0,1,3.12,2.74,7.19,7.19,0,0,1,1.11,3.92H229.1a5.38,5.38,0,0,0-1.79-4.22,7,7,0,0,0-4.82-1.6,7.53,7.53,0,0,0-4.67,1.32,4.08,4.08,0,0,0-1.74,3.42,3.89,3.89,0,0,0,1.56,3.19,14.53,14.53,0,0,0,5,2.17,23.72,23.72,0,0,1,5.22,1.95,7.52,7.52,0,0,1,2.67,2.42,6,6,0,0,1,.9,3.32A5.77,5.77,0,0,1,229,44.52a10.27,10.27,0,0,1-6.37,1.83,12.62,12.62,0,0,1-5-1,7.64,7.64,0,0,1-3.42-2.71,7,7,0,0,1-1.17-4h2.16a5.1,5.1,0,0,0,2,4.27,8.58,8.58,0,0,0,5.38,1.56,8,8,0,0,0,4.8-1.31A4.12,4.12,0,0,0,229.26,39.71Z"/><path class="cls-2" d="M247.61,46a10.07,10.07,0,0,1-.4-2.65,7.35,7.35,0,0,1-2.82,2.22,8.71,8.71,0,0,1-3.63.78,6.37,6.37,0,0,1-4.44-1.53,5,5,0,0,1-1.7-3.86,5.09,5.09,0,0,1,2.31-4.4,11.09,11.09,0,0,1,6.44-1.62h3.82V32.78a4.17,4.17,0,0,0-1.26-3.21,5.24,5.24,0,0,0-3.66-1.16,5.73,5.73,0,0,0-3.64,1.12,3.34,3.34,0,0,0-1.44,2.71l-2.11,0a4.89,4.89,0,0,1,2.11-3.93,8.08,8.08,0,0,1,5.18-1.66,7.41,7.41,0,0,1,5,1.59,5.67,5.67,0,0,1,1.89,4.44v9a11.07,11.07,0,0,0,.58,4.13V46ZM241,44.49a7.05,7.05,0,0,0,3.77-1,6,6,0,0,0,2.42-2.72V36.56h-3.76a9.51,9.51,0,0,0-4.92,1.15,3.46,3.46,0,0,0-1.78,3.07,3.42,3.42,0,0,0,1.19,2.66A4.48,4.48,0,0,0,241,44.49Z"/><path class="cls-2" d="M257.16,27V48.27a5.77,5.77,0,0,1-1.27,4,4.78,4.78,0,0,1-3.73,1.39,5.29,5.29,0,0,1-1.84-.33l0-1.72a5.7,5.7,0,0,0,1.59.22q3.12,0,3.12-3.6V27Zm-1-6.91a1.37,1.37,0,0,1,1.46,1.42,1.36,1.36,0,0,1-.39,1,1.41,1.41,0,0,1-1.07.41,1.36,1.36,0,0,1-1.05-.41,1.39,1.39,0,0,1-.38-1,1.46,1.46,0,0,1,.38-1A1.36,1.36,0,0,1,256.12,20.07Z"/><path class="cls-2" d="M269.13,43l5.55-16H277l-8.12,22.26-.42,1q-1.57,3.47-4.84,3.46a6.11,6.11,0,0,1-1.62-.24V51.7l1.09.1a3.88,3.88,0,0,0,2.5-.76,5.86,5.86,0,0,0,1.63-2.63l.93-2.57L260.92,27h2.3Z"/><path class="cls-2" d="M291.94,46a10.07,10.07,0,0,1-.4-2.65,7.35,7.35,0,0,1-2.82,2.22,8.71,8.71,0,0,1-3.63.78,6.37,6.37,0,0,1-4.44-1.53A5,5,0,0,1,279,41a5.09,5.09,0,0,1,2.31-4.4,11.12,11.12,0,0,1,6.45-1.62h3.81V32.78a4.17,4.17,0,0,0-1.26-3.21,5.22,5.22,0,0,0-3.66-1.16A5.73,5.73,0,0,0,283,29.53a3.34,3.34,0,0,0-1.44,2.71l-2.11,0a4.89,4.89,0,0,1,2.11-3.93,8.1,8.1,0,0,1,5.18-1.66,7.39,7.39,0,0,1,5,1.59,5.67,5.67,0,0,1,1.89,4.44v9a11.29,11.29,0,0,0,.58,4.13V46Zm-6.61-1.51a7,7,0,0,0,3.77-1,6,6,0,0,0,2.42-2.72V36.56h-3.76a9.51,9.51,0,0,0-4.92,1.15,3.46,3.46,0,0,0-1.78,3.07,3.42,3.42,0,0,0,1.19,2.66A4.48,4.48,0,0,0,285.33,44.49Z"/><path class="cls-3" d="M21.36,32.09V2.54a1.28,1.28,0,0,0-2.19-.91L1.25,19.54,19.17,37.46a1.29,1.29,0,0,0,2.19-.91V32.09Z"/><path class="cls-3" d="M45,26.72a1.28,1.28,0,0,0-2.19.91v34a1.28,1.28,0,0,0,2.19.91L62.93,44.64Z"/><circle class="cls-4" cx="57.18" cy="7" r="3.01"/><circle class="cls-5" cx="21.36" cy="22.39" r="3.01"/><circle class="cls-6" cx="42.82" cy="43.46" r="3.01"/><circle class="cls-7" cx="7" cy="57.19" r="3.01"/><path d="M47.77,8.25h5.34a4.27,4.27,0,1,0,0-2.51H47.77a1.26,1.26,0,0,0,0,2.51Zm9.41-3a1.76,1.76,0,1,1-1.74,2,1.23,1.23,0,0,0,0-.19,1.36,1.36,0,0,0,0-.2A1.76,1.76,0,0,1,57.18,5.24Z"/><path d="M43,8.25A1.25,1.25,0,0,0,44.27,7a1.27,1.27,0,0,0-.36-.89,1.26,1.26,0,0,0-1.78,0,1.27,1.27,0,0,0-.36.89A1.25,1.25,0,0,0,43,8.25Z"/><path d="M63.81,43.75,45.9,25.84a2.53,2.53,0,0,0-4.33,1.79v3.21h-19V26.46a4.26,4.26,0,1,0-2.5,0V36.55h0l0,0s0,0,0,0l-17-17,17-17h0s0,0,0,0a0,0,0,0,1,0,0V7a1.25,1.25,0,0,0,1.25,1.25H37.87a1.26,1.26,0,0,0,0-2.51H22.61V2.54A2.54,2.54,0,0,0,18.28.74L.37,18.66a1.25,1.25,0,0,0,0,1.77L18.28,38.34a2.53,2.53,0,0,0,4.33-1.79V33.34h19v6a4.27,4.27,0,1,0,2.51,0V27.63h0l0,0s0,0,0,0l17,17-17,17h0s0,0,0,0V57.18a1.25,1.25,0,0,0-1.25-1.25H21.06a1.26,1.26,0,0,0,0,2.51H41.57v3.2A2.52,2.52,0,0,0,43.13,64a2.42,2.42,0,0,0,1,.2,2.52,2.52,0,0,0,1.79-.75L63.81,45.52A1.25,1.25,0,0,0,63.81,43.75ZM21.36,20.63a1.76,1.76,0,1,1-1.76,1.76A1.75,1.75,0,0,1,21.36,20.63ZM42.82,45.22a1.76,1.76,0,1,1,1.75-1.76A1.76,1.76,0,0,1,42.82,45.22Z"/><path d="M15.33,55.93a1.26,1.26,0,0,0-1.25,1.25,1.24,1.24,0,0,0,.37.89,1.24,1.24,0,0,0,1.77,0,1.28,1.28,0,0,0,.37-.89,1.26,1.26,0,0,0-.37-.88A1.22,1.22,0,0,0,15.33,55.93Z"/><path d="M7,52.92a4.27,4.27,0,1,0,4.26,4.27A4.28,4.28,0,0,0,7,52.92Zm0,6a1.76,1.76,0,1,1,1.75-1.75A1.76,1.76,0,0,1,7,58.94Z"/><path d="M30.16,12a1.25,1.25,0,0,0,1.25,1.26H45.54a1.26,1.26,0,1,0,0-2.51H31.41A1.25,1.25,0,0,0,30.16,12Z"/><path d="M39.34,53.4a1.26,1.26,0,0,0,0-2.51H25.2a1.26,1.26,0,0,0,0,2.51Z"/></svg>